<mxfile host="app.diagrams.net" modified="2020-09-14T09:29:07.086Z" agent="5.0 (Linux; Android 10; Pixel 2 XL) AppleWebKit/537.36 (KHTML, like Gecko) Chrome/85.0.4183.101 Mobile Safari/537.36" etag="RC8Kp6oczIZNrgmZ1ZM9" version="13.6.9" type="github">
  <diagram id="C5RBs43oDa-KdzZeNtuy" name="Gameplay flow">
    <mxGraphModel dx="540" dy="1006" grid="1" gridSize="10" guides="1" tooltips="1" connect="1" arrows="1" fold="1" page="1" pageScale="1" pageWidth="827" pageHeight="1169" math="0" shadow="0">
      <root>
        <mxCell id="WIyWlLk6GJQsqaUBKTNV-0" />
        <mxCell id="WIyWlLk6GJQsqaUBKTNV-1" parent="WIyWlLk6GJQsqaUBKTNV-0" />
        <mxCell id="OtnTEiLP755R2IgnLlQw-1" value="" style="edgeStyle=orthogonalEdgeStyle;rounded=0;orthogonalLoop=1;jettySize=auto;html=1;" edge="1" parent="WIyWlLk6GJQsqaUBKTNV-1" source="WIyWlLk6GJQsqaUBKTNV-3" target="OtnTEiLP755R2IgnLlQw-0">
          <mxGeometry relative="1" as="geometry" />
        </mxCell>
        <mxCell id="OtnTEiLP755R2IgnLlQw-5" value="" style="edgeStyle=orthogonalEdgeStyle;rounded=0;orthogonalLoop=1;jettySize=auto;html=1;" edge="1" parent="WIyWlLk6GJQsqaUBKTNV-1" source="WIyWlLk6GJQsqaUBKTNV-3" target="OtnTEiLP755R2IgnLlQw-4">
          <mxGeometry relative="1" as="geometry" />
        </mxCell>
        <mxCell id="OtnTEiLP755R2IgnLlQw-7" value="" style="edgeStyle=orthogonalEdgeStyle;rounded=0;orthogonalLoop=1;jettySize=auto;html=1;" edge="1" parent="WIyWlLk6GJQsqaUBKTNV-1" source="WIyWlLk6GJQsqaUBKTNV-3" target="OtnTEiLP755R2IgnLlQw-6">
          <mxGeometry relative="1" as="geometry" />
        </mxCell>
        <mxCell id="OtnTEiLP755R2IgnLlQw-9" value="" style="edgeStyle=orthogonalEdgeStyle;rounded=0;orthogonalLoop=1;jettySize=auto;html=1;" edge="1" parent="WIyWlLk6GJQsqaUBKTNV-1" source="WIyWlLk6GJQsqaUBKTNV-3" target="OtnTEiLP755R2IgnLlQw-8">
          <mxGeometry relative="1" as="geometry" />
        </mxCell>
        <mxCell id="WIyWlLk6GJQsqaUBKTNV-3" value="UI Main menu" style="rounded=1;whiteSpace=wrap;html=1;fontSize=12;glass=0;strokeWidth=1;shadow=0;" parent="WIyWlLk6GJQsqaUBKTNV-1" vertex="1">
          <mxGeometry x="294" y="80" width="120" height="40" as="geometry" />
        </mxCell>
        <mxCell id="OtnTEiLP755R2IgnLlQw-11" value="" style="edgeStyle=orthogonalEdgeStyle;rounded=0;orthogonalLoop=1;jettySize=auto;html=1;" edge="1" parent="WIyWlLk6GJQsqaUBKTNV-1" source="OtnTEiLP755R2IgnLlQw-0" target="OtnTEiLP755R2IgnLlQw-10">
          <mxGeometry relative="1" as="geometry" />
        </mxCell>
        <mxCell id="OtnTEiLP755R2IgnLlQw-12" value="" style="edgeStyle=orthogonalEdgeStyle;rounded=0;orthogonalLoop=1;jettySize=auto;html=1;" edge="1" parent="WIyWlLk6GJQsqaUBKTNV-1" source="OtnTEiLP755R2IgnLlQw-0" target="OtnTEiLP755R2IgnLlQw-10">
          <mxGeometry relative="1" as="geometry" />
        </mxCell>
        <mxCell id="OtnTEiLP755R2IgnLlQw-14" value="" style="edgeStyle=orthogonalEdgeStyle;rounded=0;orthogonalLoop=1;jettySize=auto;html=1;" edge="1" parent="WIyWlLk6GJQsqaUBKTNV-1" source="OtnTEiLP755R2IgnLlQw-0" target="OtnTEiLP755R2IgnLlQw-13">
          <mxGeometry relative="1" as="geometry" />
        </mxCell>
        <mxCell id="OtnTEiLP755R2IgnLlQw-0" value="Play" style="rounded=1;whiteSpace=wrap;html=1;fontSize=12;glass=0;strokeWidth=1;shadow=0;" vertex="1" parent="WIyWlLk6GJQsqaUBKTNV-1">
          <mxGeometry x="90" y="200" width="120" height="40" as="geometry" />
        </mxCell>
        <mxCell id="OtnTEiLP755R2IgnLlQw-4" value="Credits" style="rounded=1;whiteSpace=wrap;html=1;fontSize=12;glass=0;strokeWidth=1;shadow=0;" vertex="1" parent="WIyWlLk6GJQsqaUBKTNV-1">
          <mxGeometry x="230" y="200" width="120" height="40" as="geometry" />
        </mxCell>
        <mxCell id="OtnTEiLP755R2IgnLlQw-6" value="Options" style="rounded=1;whiteSpace=wrap;html=1;fontSize=12;glass=0;strokeWidth=1;shadow=0;" vertex="1" parent="WIyWlLk6GJQsqaUBKTNV-1">
          <mxGeometry x="370" y="200" width="120" height="40" as="geometry" />
        </mxCell>
        <mxCell id="OtnTEiLP755R2IgnLlQw-8" value="Exit game" style="rounded=1;whiteSpace=wrap;html=1;fontSize=12;glass=0;strokeWidth=1;shadow=0;" vertex="1" parent="WIyWlLk6GJQsqaUBKTNV-1">
          <mxGeometry x="510" y="200" width="120" height="40" as="geometry" />
        </mxCell>
        <mxCell id="OtnTEiLP755R2IgnLlQw-10" value="Solo" style="rounded=1;whiteSpace=wrap;html=1;fontSize=12;glass=0;strokeWidth=1;shadow=0;" vertex="1" parent="WIyWlLk6GJQsqaUBKTNV-1">
          <mxGeometry x="20" y="320" width="120" height="40" as="geometry" />
        </mxCell>
        <mxCell id="OtnTEiLP755R2IgnLlQw-13" value="Multiplayer" style="rounded=1;whiteSpace=wrap;html=1;fontSize=12;glass=0;strokeWidth=1;shadow=0;" vertex="1" parent="WIyWlLk6GJQsqaUBKTNV-1">
          <mxGeometry x="160" y="320" width="120" height="40" as="geometry" />
        </mxCell>
      </root>
    </mxGraphModel>
  </diagram>
</mxfile>
